<svg preserveAspectRatio="none" width="100%" height="100%" overflow="visible" style="display: block;" viewBox="0 0 18.1667 16.5" fill="none" xmlns="http://www.w3.org/2000/svg">
<path id="Icon" d="M9.91667 2.41667C9.91667 3.33714 7.86464 4.08333 5.33333 4.08333C2.80203 4.08333 0.75 3.33714 0.75 2.41667M9.91667 2.41667C9.91667 1.49619 7.86464 0.75 5.33333 0.75C2.80203 0.75 0.75 1.49619 0.75 2.41667M9.91667 2.41667V3.66667M0.75 2.41667V12.4167C0.75 13.3371 2.80203 14.0833 5.33333 14.0833M5.33333 7.41667C5.19288 7.41667 5.0539 7.41437 4.91667 7.40987C2.58062 7.33332 0.75 6.6194 0.75 5.75M5.33333 10.75C2.80203 10.75 0.75 10.0038 0.75 9.08333M17.4167 7.83333C17.4167 8.75381 15.3646 9.5 12.8333 9.5C10.302 9.5 8.25 8.75381 8.25 7.83333M17.4167 7.83333C17.4167 6.91286 15.3646 6.16667 12.8333 6.16667C10.302 6.16667 8.25 6.91286 8.25 7.83333M17.4167 7.83333V14.0833C17.4167 15.0038 15.3646 15.75 12.8333 15.75C10.302 15.75 8.25 15.0038 8.25 14.0833V7.83333M17.4167 10.9583C17.4167 11.8788 15.3646 12.625 12.8333 12.625C10.302 12.625 8.25 11.8788 8.25 10.9583" stroke="var(--stroke-0, #0A7268)" stroke-width="1.5" stroke-linecap="round" stroke-linejoin="round"/>
</svg>
