<svg preserveAspectRatio="none" width="100%" height="100%" overflow="visible" style="display: block;" viewBox="0 0 23 25.3333" fill="none" xmlns="http://www.w3.org/2000/svg">
<path id="Icon" d="M22 10.3333H1M22 13.25V8.93333C22 6.97315 22 5.99306 21.6185 5.24437C21.283 4.5858 20.7475 4.05037 20.089 3.71481C19.3403 3.33333 18.3602 3.33333 16.4 3.33333H6.6C4.63982 3.33333 3.65972 3.33333 2.91103 3.71481C2.25247 4.05037 1.71703 4.5858 1.38148 5.24437C1 5.99306 1 6.97315 1 8.93333V18.7333C1 20.6935 1 21.6736 1.38148 22.4223C1.71703 23.0809 2.25247 23.6163 2.91103 23.9519C3.65972 24.3333 4.63982 24.3333 6.6 24.3333H11.5M16.1667 1V5.66667M6.83333 1V5.66667M14.4167 20.8333L16.75 23.1667L22 17.9167" stroke="var(--stroke-0, #151515)" stroke-width="2" stroke-linecap="round" stroke-linejoin="round"/>
</svg>
