<svg preserveAspectRatio="none" width="100%" height="100%" overflow="visible" style="display: block;" viewBox="0 0 18.2544 18.1667" fill="none" xmlns="http://www.w3.org/2000/svg">
<path id="Icon" d="M4.16198 8.44066C4.11018 8.10686 4.08331 7.76488 4.08331 7.41667C4.08331 3.73477 7.08772 0.75 10.7938 0.75C14.5 0.75 17.5044 3.73477 17.5044 7.41667C17.5044 8.24839 17.3511 9.04454 17.071 9.77875C17.0128 9.93124 16.9837 10.0075 16.9705 10.067C16.9574 10.126 16.9524 10.1675 16.951 10.2279C16.9495 10.2888 16.9578 10.356 16.9743 10.4903L17.3098 13.2154C17.3461 13.5104 17.3643 13.6579 17.3152 13.7652C17.2722 13.8591 17.1958 13.9338 17.1009 13.9746C16.9926 14.0212 16.8455 13.9996 16.5514 13.9565L13.8971 13.5674C13.7585 13.5471 13.6892 13.537 13.626 13.5373C13.5636 13.5377 13.5204 13.5423 13.4593 13.5551C13.3975 13.5681 13.3186 13.5977 13.1608 13.6568C12.4247 13.9325 11.627 14.0833 10.7938 14.0833C10.4453 14.0833 10.1031 14.0569 9.76889 14.0061M5.44299 17.4167C7.91374 17.4167 9.91668 15.3646 9.91668 12.8333C9.91668 10.302 7.91374 8.25 5.44299 8.25C2.97225 8.25 0.969309 10.302 0.969309 12.8333C0.969309 13.3422 1.05024 13.8316 1.19963 14.2889C1.26279 14.4823 1.29436 14.5789 1.30472 14.6449C1.31554 14.7139 1.31744 14.7526 1.31341 14.8223C1.30955 14.889 1.29286 14.9644 1.25946 15.1153L0.750011 17.4167L3.24568 17.0758C3.3819 17.0572 3.45001 17.0479 3.50948 17.0483C3.57211 17.0488 3.60535 17.0521 3.66677 17.0644C3.7251 17.076 3.81181 17.1066 3.98524 17.1678C4.44217 17.3291 4.9326 17.4167 5.44299 17.4167Z" stroke="var(--stroke-0, #0A7268)" stroke-width="1.5" stroke-linecap="round" stroke-linejoin="round"/>
</svg>
