<svg preserveAspectRatio="none" width="100%" height="100%" overflow="visible" style="display: block;" viewBox="0 0 17.8071 17.8071" fill="none" xmlns="http://www.w3.org/2000/svg">
<path id="Icon" d="M16.2667 16.5404H9.60005M0.850025 16.957L5.47442 15.1784C5.7702 15.0646 5.91809 15.0078 6.05646 14.9335C6.17936 14.8675 6.29652 14.7914 6.40673 14.7059C6.53079 14.6096 6.64284 14.4975 6.86692 14.2735L16.2667 4.87369C17.1872 3.95322 17.1872 2.46083 16.2667 1.54036C15.3462 0.619882 13.8539 0.619881 12.9334 1.54035L3.53359 10.9401C3.3095 11.1642 3.19746 11.2763 3.10118 11.4003C3.01567 11.5105 2.93953 11.6277 2.87355 11.7506C2.79928 11.889 2.7424 12.0369 2.62863 12.3326L0.850025 16.957ZM0.850025 16.957L2.56513 12.4978C2.68786 12.1787 2.74922 12.0192 2.85447 11.9461C2.94646 11.8822 3.06028 11.8581 3.17027 11.8791C3.29614 11.9031 3.41701 12.024 3.65876 12.2657L5.54134 14.1483C5.78309 14.3901 5.90396 14.5109 5.928 14.6368C5.949 14.7468 5.92485 14.8606 5.86098 14.9526C5.7879 15.0579 5.62835 15.1192 5.30925 15.2419L0.850025 16.957Z" stroke="var(--stroke-0, #128468)" stroke-width="1.7" stroke-linecap="round" stroke-linejoin="round"/>
</svg>
