<svg width="100%" height="100%" overflow="visible" style="display: block;" viewBox="0 0 28.807 28.6667" fill="none" xmlns="http://www.w3.org/2000/svg">
<path id="Icon" d="M6.45917 13.3051C6.37629 12.771 6.3333 12.2238 6.3333 11.6667C6.3333 5.77563 11.1403 1 17.0701 1C22.9999 1 27.807 5.77563 27.807 11.6667C27.807 12.9974 27.5617 14.2713 27.1136 15.446C27.0205 15.69 26.9739 15.812 26.9528 15.9072C26.9319 16.0016 26.9238 16.068 26.9215 16.1646C26.9192 16.2621 26.9325 16.3696 26.9589 16.5844L27.4957 20.9447C27.5538 21.4167 27.5828 21.6527 27.5043 21.8243C27.4355 21.9746 27.3133 22.094 27.1615 22.1593C26.9881 22.2339 26.7529 22.1994 26.2823 22.1304L22.0353 21.5079C21.8135 21.4754 21.7026 21.4591 21.6017 21.4597C21.5018 21.4603 21.4326 21.4676 21.3349 21.4882C21.2361 21.509 21.1098 21.5563 20.8573 21.6508C19.6796 22.092 18.4032 22.3333 17.0701 22.3333C16.5126 22.3333 15.9649 22.2911 15.4302 22.2097M8.50879 27.6667C12.462 27.6667 15.6667 24.3834 15.6667 20.3333C15.6667 16.2832 12.462 13 8.50879 13C4.55559 13 1.35089 16.2832 1.35089 20.3333C1.35089 21.1475 1.48038 21.9306 1.71941 22.6623C1.82045 22.9716 1.87098 23.1263 1.88756 23.2319C1.90487 23.3422 1.9079 23.4042 1.90145 23.5156C1.89528 23.6224 1.86857 23.7431 1.81514 23.9844L1.00001 27.6667L4.99308 27.1213C5.21103 27.0916 5.32001 27.0767 5.41517 27.0773C5.51537 27.078 5.56856 27.0834 5.66683 27.103C5.76015 27.1216 5.89889 27.1706 6.17638 27.2685C6.90747 27.5266 7.69216 27.6667 8.50879 27.6667Z" stroke="var(--stroke-0, #285840)" stroke-width="2" stroke-linecap="round" stroke-linejoin="round"/>
</svg>
