<svg width="100%" height="100%" overflow="visible" style="display: block;" viewBox="0 0 18.225 18.3001" fill="none" xmlns="http://www.w3.org/2000/svg">
<path id="Icon" d="M10.85 4.0834C11.6639 4.2422 12.412 4.64028 12.9984 5.22668C13.5848 5.81308 13.9828 6.56112 14.1416 7.37507M10.85 0.750066C12.541 0.93793 14.118 1.69521 15.3218 2.89757C16.5257 4.09993 17.285 5.67591 17.475 7.36673M7.66413 10.636C6.66281 9.63464 5.87216 8.50244 5.29216 7.29442C5.24227 7.19052 5.21732 7.13856 5.19816 7.07282C5.13006 6.83919 5.17897 6.55231 5.32065 6.35445C5.36052 6.29877 5.40815 6.25114 5.50341 6.15588C5.79475 5.86454 5.94042 5.71888 6.03565 5.57239C6.39482 5.01998 6.39482 4.30783 6.03565 3.75543C5.94042 3.60894 5.79475 3.46328 5.50341 3.17194L5.34102 3.00955C4.89815 2.56668 4.67671 2.34524 4.4389 2.22495C3.96593 1.98573 3.40738 1.98573 2.93441 2.22496C2.69659 2.34524 2.47516 2.56668 2.03229 3.00955L1.90092 3.14091C1.45957 3.58226 1.2389 3.80294 1.07036 4.10296C0.883339 4.43588 0.748871 4.95296 0.750007 5.33481C0.75103 5.67893 0.817784 5.91412 0.95129 6.38449C1.66876 8.91232 3.02249 11.2976 5.01248 13.2876C7.00246 15.2776 9.38776 16.6313 11.9156 17.3488C12.386 17.4823 12.6211 17.5491 12.9653 17.5501C13.3471 17.5512 13.8642 17.4167 14.1971 17.2297C14.4971 17.0612 14.7178 16.8405 15.1592 16.3992L15.2905 16.2678C15.7334 15.8249 15.9548 15.6035 16.0751 15.3657C16.3144 14.8927 16.3144 14.3342 16.0751 13.8612C15.9548 13.6234 15.7334 13.4019 15.2905 12.9591L15.1281 12.7967C14.8368 12.5053 14.6911 12.3597 14.5447 12.2644C13.9922 11.9053 13.2801 11.9053 12.7277 12.2644C12.5812 12.3597 12.4355 12.5053 12.1442 12.7967C12.0489 12.8919 12.0013 12.9396 11.9456 12.9794C11.7478 13.1211 11.4609 13.17 11.2273 13.1019C11.1615 13.0828 11.1096 13.0578 11.0057 13.0079C9.79764 12.4279 8.66544 11.6373 7.66413 10.636Z" stroke="var(--stroke-0, #C83820)" stroke-width="1.5" stroke-linecap="round" stroke-linejoin="round"/>
</svg>
