<svg width="100%" height="100%" overflow="visible" style="display: block;" viewBox="0 0 17.2556 18.1667" fill="none" xmlns="http://www.w3.org/2000/svg">
<path id="Icon" d="M11.1278 14.9167C11.1278 16.2974 10.0085 17.4167 8.62781 17.4167C7.2471 17.4167 6.12781 16.2974 6.12781 14.9167M10.1249 4.28213C10.4878 3.9072 10.7111 3.39635 10.7111 2.83333C10.7111 1.68274 9.7784 0.75 8.62781 0.75C7.47722 0.75 6.54448 1.68274 6.54448 2.83333C6.54448 3.39635 6.76781 3.9072 7.13072 4.28213M0.750162 6.01913C0.738206 4.80968 1.39027 3.68026 2.44367 3.08589M16.5055 6.01913C16.5174 4.80968 15.8653 3.68026 14.812 3.08589M13.6278 8.41667C13.6278 7.26739 13.101 6.16519 12.1633 5.35254C11.2257 4.53988 9.95389 4.08333 8.62781 4.08333C7.30173 4.08333 6.02996 4.53988 5.09228 5.35254C4.1546 6.16519 3.62781 7.26739 3.62781 8.41667C3.62781 10.3182 3.15625 11.7088 2.56786 12.7039C1.89726 13.838 1.56196 14.4051 1.5752 14.5405C1.59035 14.6955 1.61824 14.7444 1.74393 14.8363C1.85379 14.9167 2.40574 14.9167 3.50964 14.9167H13.746C14.8499 14.9167 15.4018 14.9167 15.5117 14.8363C15.6374 14.7444 15.6653 14.6955 15.6804 14.5405C15.6937 14.4051 15.3584 13.838 14.6878 12.7039C14.0994 11.7088 13.6278 10.3182 13.6278 8.41667Z" stroke="var(--stroke-0, #0A7268)" stroke-width="1.5" stroke-linecap="round" stroke-linejoin="round"/>
</svg>
