<svg width="100%" height="100%" overflow="visible" style="display: block;" viewBox="0 0 18.4544 18.3667" fill="none" xmlns="http://www.w3.org/2000/svg">
<path id="Icon" d="M4.26198 8.54066C4.21019 8.20686 4.18331 7.86488 4.18331 7.51667C4.18331 3.83477 7.18772 0.85 10.8938 0.85C14.6 0.85 17.6044 3.83477 17.6044 7.51667C17.6044 8.34839 17.4511 9.14454 17.171 9.87875C17.1128 10.0312 17.0837 10.1075 17.0705 10.167C17.0574 10.226 17.0524 10.2675 17.051 10.3279C17.0495 10.3888 17.0578 10.456 17.0743 10.5903L17.4098 13.3154C17.4461 13.6104 17.4643 13.7579 17.4152 13.8652C17.3722 13.9591 17.2958 14.0338 17.2009 14.0746C17.0926 14.1212 16.9455 14.0996 16.6514 14.0565L13.9971 13.6674C13.8585 13.6471 13.7892 13.637 13.726 13.6373C13.6636 13.6377 13.6204 13.6423 13.5593 13.6551C13.4975 13.6681 13.4186 13.6977 13.2608 13.7568C12.5247 14.0325 11.727 14.1833 10.8938 14.1833C10.5453 14.1833 10.2031 14.1569 9.8689 14.1061M5.54299 17.5167C8.01374 17.5167 10.0167 15.4646 10.0167 12.9333C10.0167 10.402 8.01374 8.35 5.54299 8.35C3.07225 8.35 1.06931 10.402 1.06931 12.9333C1.06931 13.4422 1.15024 13.9316 1.29964 14.3889C1.36279 14.5823 1.39436 14.6789 1.40473 14.7449C1.41554 14.8139 1.41744 14.8526 1.41341 14.9223C1.40955 14.989 1.39286 15.0644 1.35947 15.2153L0.850012 17.5167L3.34568 17.1758C3.4819 17.1572 3.55001 17.1479 3.60949 17.1483C3.67211 17.1488 3.70535 17.1521 3.76677 17.1644C3.8251 17.176 3.91181 17.2066 4.08524 17.2678C4.54217 17.4291 5.0326 17.5167 5.54299 17.5167Z" stroke="var(--stroke-0, #128468)" stroke-width="1.7" stroke-linecap="round" stroke-linejoin="round"/>
</svg>
