<svg width="100%" height="100%" overflow="visible" style="display: block;" viewBox="0 0 23.0002 23.8553" fill="none" xmlns="http://www.w3.org/2000/svg">
<path id="Icon" d="M6.83345 18.1887H16.1668M10.3541 1.58001L2.44141 7.73433C1.91248 8.14572 1.64801 8.35141 1.45748 8.60901C1.28871 8.8372 1.16299 9.09426 1.08648 9.36757C1.00012 9.67612 1.00012 10.0112 1.00012 10.6812V19.122C1.00012 20.4288 1.00012 21.0822 1.25444 21.5813C1.47814 22.0204 1.83509 22.3773 2.27414 22.601C2.77327 22.8553 3.42666 22.8553 4.73345 22.8553H18.2668C19.5736 22.8553 20.227 22.8553 20.7261 22.601C21.1651 22.3773 21.5221 22.0204 21.7458 21.5813C22.0001 21.0822 22.0001 20.4288 22.0001 19.122V10.6812C22.0001 10.0112 22.0001 9.67612 21.9138 9.36757C21.8372 9.09426 21.7115 8.8372 21.5428 8.60901C21.3522 8.35141 21.0878 8.14572 20.5588 7.73433L12.6461 1.58001C12.2363 1.26122 12.0313 1.10182 11.805 1.04055C11.6053 0.986484 11.3949 0.986484 11.1952 1.04055C10.9689 1.10182 10.764 1.26122 10.3541 1.58001Z" stroke="var(--stroke-0, #0A7268)" stroke-width="2" stroke-linecap="round" stroke-linejoin="round"/>
</svg>
